PathFileType	4	(X/Y/Z)	c:/Users/goper/Files/vsCode/490R/osim_files/A01/A01_Slow_06.trc
DataRate	CameraRate	NumFrames	NumMarkers	Units                	OrigDataRate	OrigDataStartFrame	OrigNumFrames
120.00	120.00	4	36	mm	120.0	1009	1152
                Frame#	Time	Mobility_markerset:LPSIS			Mobility_markerset:LASIS			Mobility_markerset:LTH1			Mobility_markerset:LTH2			Mobility_markerset:LTH3			Mobility_markerset:LTH4			Mobility_markerset:LLFE			Mobility_markerset:LMFE			Mobility_markerset:LSH1			Mobility_markerset:LSH2			Mobility_markerset:LSH3			Mobility_markerset:LSH4			Mobility_markerset:LLMAL			Mobility_markerset:LMMAL			Mobility_markerset:LCAL			Mobility_markerset:LMTP5			Mobility_markerset:LTOE			Mobility_markerset:LMTP1			Mobility_markerset:RPSIS			Mobility_markerset:RASIS			Mobility_markerset:RTH1			Mobility_markerset:RTH2			Mobility_markerset:RTH3			Mobility_markerset:RTH4			Mobility_markerset:RLFE			Mobility_markerset:RMFE			Mobility_markerset:RSH1			Mobility_markerset:RSH2			Mobility_markerset:RSH3			Mobility_markerset:RSH4			Mobility_markerset:RLMAL			Mobility_markerset:RMMAL			Mobility_markerset:RCAL			Mobility_markerset:RMTP1			Mobility_markerset:RTOE			Mobility_markerset:RMTP5		
		X1	Y1	Z1	X2	Y2	Z2	X3	Y3	Z3	X4	Y4	Z4	X5	Y5	Z5	X6	Y6	Z6	X7	Y7	Z7	X8	Y8	Z8	X9	Y9	Z9	X10	Y10	Z10	X11	Y11	Z11	X12	Y12	Z12	X13	Y13	Z13	X14	Y14	Z14	X15	Y15	Z15	X16	Y16	Z16	X17	Y17	Z17	X18	Y18	Z18	X19	Y19	Z19	X20	Y20	Z20	X21	Y21	Z21	X22	Y22	Z22	X23	Y23	Z23	X24	Y24	Z24	X25	Y25	Z25	X26	Y26	Z26	X27	Y27	Z27	X28	Y28	Z28	X29	Y29	Z29	X30	Y30	Z30	X31	Y31	Z31	X32	Y32	Z32	X33	Y33	Z33	X34	Y34	Z34	X35	Y35	Z35	X36	Y36	Z36

1009	8.40000	0.00000	0.00000	0.00000	-3904.14111	1030.66296	414.20374	-3831.42285	704.61145	444.70673	-3847.34619	659.32886	447.24503	-3884.75317	718.80762	474.08133	-3892.76123	672.36688	467.96588	0.00000	0.00000	0.00000	-3971.44507	521.99640	337.37473	-3764.92847	451.52734	357.33716	0.00000	0.00000	0.00000	-3794.57495	406.10895	384.32993	0.00000	0.00000	0.00000	-3600.25098	220.27765	256.93744	-3642.54834	214.27599	184.79312	-3562.71802	247.02124	173.39836	-3634.99243	96.15368	328.77979	-3701.29785	85.00536	293.84772	-3703.76758	80.58152	255.41095	0.00000	0.00000	0.00000	-4029.53394	1005.41779	186.85686	-3958.12622	696.51740	40.88036	-3971.19531	655.67273	45.51471	-4019.00562	709.47003	59.22828	-4021.21216	666.16046	59.06743	-4021.14868	516.99542	94.49883	-3980.66870	515.62866	212.05551	-3958.65381	316.45352	47.83367	-3964.94702	270.97751	47.60078	-4017.78369	319.38940	65.85874	-4017.01807	274.06174	63.55442	-3993.28467	94.79701	81.06759	-3989.48315	111.83965	166.36528	0.00000	0.00000	0.00000	-4113.00000	53.93570	214.76562	-4159.36621	65.00528	181.92996	-4131.40283	38.24933	99.41194
1010	8.40833	0.00000	0.00000	0.00000	-3907.93579	1030.99023	415.50577	-3835.25757	706.54346	445.16882	-3853.14429	661.40833	449.42786	-3886.22388	720.25720	475.75854	-3896.36133	674.74341	471.23706	0.00000	0.00000	0.00000	-3981.02759	525.28101	343.52032	-3775.22705	452.63605	360.04929	0.00000	0.00000	0.00000	-3805.15137	407.67487	387.81995	0.00000	0.00000	0.00000	-3614.94849	219.08987	257.91476	-3658.75781	213.24762	186.59534	-3579.24658	245.16560	173.86935	-3650.21875	95.82260	330.99466	-3716.95190	85.01440	297.33716	-3720.16919	80.50671	258.91046	0.00000	0.00000	0.00000	-4035.60889	1004.57068	188.88812	0.00000	0.00000	0.00000	-3974.48071	654.96631	47.17751	-4023.70752	709.42206	61.11024	-4025.45679	666.04102	60.96905	-4023.83716	516.85461	95.57252	-3982.84717	515.34174	213.10988	-3960.55688	316.77133	48.42260	-3966.58276	271.31049	48.21835	-4019.57397	319.34933	66.84375	-4018.61108	274.08923	64.48145	-3993.01538	94.55640	81.41155	-3989.54712	111.79733	166.98923	0.00000	0.00000	0.00000	-4113.10156	53.67194	214.95894	-4159.52832	64.70576	182.17165	-4131.48486	38.39852	99.50780
1011	8.41667	0.00000	0.00000	0.00000	-3911.82593	1031.36475	416.77802	-3839.40112	708.32703	445.86530	-3856.60205	663.46466	450.23880	-3889.33789	722.82495	478.27606	-3900.11841	677.29529	474.49197	0.00000	0.00000	0.00000	-3990.28418	528.91180	349.12219	-3785.79102	453.05151	363.56055	0.00000	0.00000	0.00000	-3816.21777	408.49088	391.57126	-3786.67896	381.83618	373.32361	-3630.15454	217.04007	259.86108	-3674.83105	211.96297	188.92365	-3594.83374	242.54399	175.41528	-3664.97241	92.47588	332.44070	-3732.79932	83.88901	299.84296	-3737.51489	80.06949	261.87079	0.00000	0.00000	0.00000	-4041.55811	1003.81049	190.94714	-3967.49048	697.30957	43.52766	-3978.95142	655.14825	48.82605	-4026.15039	707.92859	62.11132	-4029.87695	665.85840	63.13966	-4026.72144	516.64209	96.83929	-3985.04297	515.27948	214.25830	-3962.45532	317.05380	49.14210	-3968.28369	271.61331	48.88018	-4021.39502	319.30807	67.85442	-4020.14917	274.04102	65.43846	-3993.23730	94.79693	81.98502	-3990.13062	111.78932	168.00597	0.00000	0.00000	0.00000	-4113.22217	53.44483	215.18570	-4159.65967	64.37541	182.45988	-4131.53076	38.55209	99.63477
1012	8.42500	0.00000	0.00000	0.00000	-3915.80127	1031.84888	418.01007	-3843.35327	709.92957	446.80161	-3861.28784	664.98285	452.08578	-3892.59326	725.66559	481.14740	-3903.93018	679.74921	477.75833	0.00000	0.00000	0.00000	-3999.25049	532.79895	354.22150	-3796.18457	452.92297	367.54990	0.00000	0.00000	0.00000	-3827.25439	409.05945	395.60385	0.00000	0.00000	0.00000	-3645.77002	214.24263	262.64279	-3690.65967	210.19556	191.92064	-3609.74634	239.09311	177.91138	-3682.85376	90.20285	334.98160	-3752.46045	84.17298	303.14728	-3755.75977	79.41336	264.60690	0.00000	0.00000	0.00000	-4047.37061	1003.12689	193.01462	-3972.63062	697.59943	45.22844	-3984.53052	656.27832	50.59955	-4032.11450	708.18292	64.97657	-4034.37329	665.63177	65.60340	-4029.55444	516.45691	98.18970	-3987.55542	515.53503	215.50684	-3964.37524	317.39169	49.91732	-3969.83398	271.84360	49.62330	-4023.23657	319.29599	68.95417	-4021.78906	274.05173	66.50223	-3993.84814	95.48684	82.67651	-3990.12915	111.61120	168.56290	0.00000	0.00000	0.00000	-4113.27783	53.18683	215.38606	-4159.77637	64.05243	182.70058	-4131.55908	38.70932	99.73520
